<?xml version="1.0" encoding="UTF-8" standalone="no"?>
<svg
   xmlns:dc="http://purl.org/dc/elements/1.1/"
   xmlns:cc="http://creativecommons.org/ns#"
   xmlns:rdf="http://www.w3.org/1999/02/22-rdf-syntax-ns#"
   xmlns:svg="http://www.w3.org/2000/svg"
   xmlns="http://www.w3.org/2000/svg"
   xmlns:sodipodi="http://sodipodi.sourceforge.net/DTD/sodipodi-0.dtd"
   xmlns:inkscape="http://www.inkscape.org/namespaces/inkscape"
   version="1.1"
   id="Capa_1"
   x="0px"
   y="0px"
   width="351.87451"
   height="71.451569"
   viewBox="0 0 351.87451 71.451569"
   enable-background="new 0 0 494 80"
   xml:space="preserve"
   sodipodi:docname="logo7.svg"
   inkscape:version="1.0.1 (3bc2e813f5, 2020-09-07)"><metadata
   id="metadata33"><rdf:RDF><cc:Work
       rdf:about=""><dc:format>image/svg+xml</dc:format><dc:type
         rdf:resource="http://purl.org/dc/dcmitype/StillImage" /><dc:title></dc:title></cc:Work></rdf:RDF></metadata><defs
   id="defs31">
	
	
	
	
	
	
	
	
	
	
</defs><sodipodi:namedview
   pagecolor="#ffffff"
   bordercolor="#666666"
   borderopacity="1"
   objecttolerance="10"
   gridtolerance="10"
   guidetolerance="10"
   inkscape:pageopacity="0"
   inkscape:pageshadow="2"
   inkscape:window-width="1440"
   inkscape:window-height="837"
   id="namedview29"
   showgrid="false"
   inkscape:zoom="2.0433423"
   inkscape:cx="253.13902"
   inkscape:cy="55.896198"
   inkscape:window-x="-8"
   inkscape:window-y="-8"
   inkscape:window-maximized="1"
   inkscape:current-layer="Capa_1" />
<rect
   x="34.021198"
   y="10.57424"
   fill="none"
   width="585"
   height="71"
   id="rect2" />


<g
   id="g979"
   transform="matrix(0.7546757,0,0,0.7546757,43.129824,8.1655459)"><path
     fill="#ffffff"
     d="m 167.70314,16.224084 c 0.87323,-0.124746 1.86081,-0.227836 2.96274,-0.311 1.10106,-0.08316 2.23504,-0.145538 3.39935,-0.187121 1.16344,-0.04158 2.29655,-0.07277 3.39935,-0.09356 1.10106,-0.01993 2.08951,-0.03119 2.96274,-0.03119 3.86715,0 7.17294,0.540569 9.91737,1.621708 2.74443,1.082006 4.96822,2.598893 6.67396,4.55326 1.704,1.955233 2.95147,4.282974 3.7424,6.985822 0.7892,2.702848 1.1851,5.675981 1.1851,8.919398 0,2.952342 -0.37425,5.800728 -1.12273,8.545158 -0.74848,2.744431 -1.99595,5.176994 -3.7424,7.29769 -1.74646,2.11983 -4.04474,3.825569 -6.89226,5.113754 -2.84926,1.288184 -6.37249,1.933575 -10.5723,1.933575 -0.66531,0 -1.5498,-0.02079 -2.65087,-0.06237 -1.10193,-0.04158 -2.24544,-0.09269 -3.43054,-0.155934 -1.18509,-0.06324 -2.31821,-0.124746 -3.39935,-0.18712 -1.082,-0.06237 -1.89286,-0.135142 -2.43256,-0.218307 z m 13.41028,6.985823 c -0.91481,0 -1.84001,0.02079 -2.77561,0.06237 -0.9356,0.04158 -1.63211,0.103956 -2.08951,0.187121 v 29.253131 c 0.16546,0.04245 0.44701,0.07363 0.84204,0.09356 0.39503,0.02079 0.82038,0.04158 1.27865,0.06237 0.45741,0.02079 0.89402,0.04158 1.30985,0.06151 0.41495,0.02166 0.72682,0.03119 0.9356,0.03119 2.4109,0 4.41811,-0.425353 6.01903,-1.278655 1.60005,-0.851571 2.86918,-1.985554 3.80478,-3.399352 0.9356,-1.413797 1.59052,-3.045901 1.96476,-4.896313 0.37424,-1.850411 0.56136,-3.751934 0.56136,-5.707167 0,-1.704873 -0.16633,-3.420142 -0.49898,-5.145807 -0.33353,-1.724798 -0.946,-3.273738 -1.84002,-4.645953 -0.89488,-1.372215 -2.11117,-2.495803 -3.64884,-3.369031 -1.53855,-0.872361 -3.49205,-1.308975 -5.86311,-1.308974 z"
     id="path6"
     style="fill:#0383d6;fill-opacity:1;stroke-width:0.866297" /><path
     fill="#ffffff"
     d="m 162.72525,59.8847 -8.1649,-0.423186 v -43.66139 h 8.54516 L 162.72525,59.8847 c -0.1089,3.272984 0,-12.478268 0,0 z"
     id="path8"
     style="fill:#0383d6;fill-opacity:1;stroke-width:0.866297"
     sodipodi:nodetypes="cccccc" /><path
     fill="#ffffff"
     d="m 214.62488,41.460012 0.81086,7.734304 h 0.24949 l 0.87323,-7.858184 7.60956,-24.264125 h 5.6136 l 7.48481,24.388005 0.87323,7.734304 h 0.2495 l 0.95466,-7.858184 5.40829,-24.264125 h 8.54516 L 241.2592,61.046131 h -5.73836 l -7.79667,-24.264125 -1.06035,-6.673089 h -0.31187 l -1.06035,6.735462 -7.7343,24.201752 h -6.05022 l -11.9757,-43.974124 h 9.29364 z"
     id="path10"
     style="fill:#0383d6;fill-opacity:1;stroke-width:0.866297" /><path
     fill="#ffffff"
     d="m 257.03881,17.072007 h 25.88496 v 7.609556 H 265.58396 V 34.84843 h 15.78048 v 7.609557 h -15.78048 v 10.665854 h 17.65168 v 7.609556 h -26.19683 z"
     id="path12"
     style="fill:#0383d6;fill-opacity:1;stroke-width:0.866297" /><path
     fill="#ffffff"
     d="m 318.97474,27.238873 c 0,1.082006 -0.13427,2.162279 -0.40369,3.243418 -0.26942,1.082006 -0.71297,2.069585 -1.33323,2.962737 -0.61941,0.894885 -1.42593,1.684082 -2.41784,2.37019 -0.99191,0.686108 -2.19087,1.19549 -3.596,1.528149 v 0.37424 c 1.2414,0.208778 2.42043,0.561361 3.53709,1.061215 1.11666,0.499853 2.08951,1.185094 2.91682,2.058322 0.82732,0.873228 1.47964,1.93271 1.95524,3.181044 0.47559,1.246602 0.71383,2.724506 0.71383,4.428513 0,2.245443 -0.4782,4.189414 -1.43373,5.831048 -0.95725,1.6425 -2.23591,2.984394 -3.83683,4.023951 -1.60178,1.039557 -3.42014,1.808829 -5.45767,2.307817 -2.0384,0.498121 -4.13744,0.747614 -6.29885,0.747614 -0.70776,0 -1.61218,0 -2.71411,0 -1.10193,0 -2.28789,-0.03119 -3.55528,-0.09269 -1.26913,-0.06237 -2.55731,-0.1568 -3.86716,-0.280681 -1.3107,-0.125613 -2.50619,-0.311867 -3.58733,-0.561361 V 17.38474 c 0.78919,-0.124747 1.69447,-0.249493 2.71324,-0.37424 1.01877,-0.125613 2.1103,-0.228703 3.2746,-0.311867 1.16431,-0.08317 2.3598,-0.145538 3.58648,-0.187121 1.22667,-0.04158 2.44295,-0.06237 3.64971,-0.06237 2.03666,0 4.02308,0.155933 5.95666,0.467801 1.93271,0.311867 3.65837,0.863698 5.17699,1.652895 1.51775,0.790063 2.73404,1.89286 3.64885,3.304925 0.91394,1.414663 1.37221,3.202701 1.37221,5.364113 z m -18.27541,8.170918 c 0.58215,0 1.257,-0.01993 2.02714,-0.06064 0.76927,-0.04158 1.4034,-0.103089 1.90239,-0.185388 1.57926,-0.492923 2.94108,-1.233607 4.08545,-2.222053 1.14265,-0.987579 1.71441,-2.28356 1.71441,-3.887942 0,-1.069878 -0.20791,-1.954367 -0.62374,-2.653469 -0.41582,-0.699969 -0.96678,-1.255265 -1.65289,-1.666757 -0.68611,-0.411491 -1.46491,-0.699102 -2.33814,-0.863698 -0.87409,-0.16373 -1.78804,-0.246895 -2.7453,-0.246895 -1.08113,0 -2.07911,0.02079 -2.99305,0.06237 -0.91568,0.04072 -1.62171,0.102223 -2.1207,0.183655 v 11.541681 h 2.74443 z m 2.70545,18.775264 c 1.0205,0 2.00981,-0.123881 2.96967,-0.370775 0.95812,-0.246895 1.80709,-0.628066 2.54171,-1.14178 0.73549,-0.515447 1.3263,-1.163438 1.77591,-1.945704 0.44874,-0.781401 0.67311,-1.708339 0.67311,-2.778216 0,-1.358355 -0.26595,-2.429098 -0.79612,-3.210498 -0.53104,-0.781401 -1.22495,-1.388675 -2.08258,-1.821824 -0.85677,-0.432282 -1.81663,-0.710364 -2.87698,-0.834244 -1.06208,-0.123015 -2.12329,-0.185388 -3.18364,-0.185388 h -4.47009 V 53.81428 c 0.20358,0.08316 0.53017,0.143805 0.97978,0.185387 0.44788,0.04072 0.92694,0.0719 1.43805,0.09183 0.51112,0.02079 1.04043,0.04245 1.59226,0.06237 0.55183,0.01993 1.03003,0.03119 1.43892,0.03119 z"
     id="path14"
     style="fill:#0383d6;fill-opacity:1;stroke-width:0.866297" /><rect
     x="23.596972"
     y="11.621971"
     fill="#fe4918"
     width="15.593353"
     height="50.959946"
     id="rect26"
     style="stroke-width:0.866297" /><g
     id="g113"
     transform="matrix(0.86629743,0,0,0.86629743,-286.12984,3.2185576)"
     style="fill:#0383d6;fill-opacity:1"><path
       fill="#ffffff"
       d="m 432.74788,20.823204 c 1.008,-0.144 6.84,-4.811922 3.87488,2.370282 -2.96512,7.182204 2.58,-5.626563 3.924,-5.674563 1.343,-0.048 -1.273,0.024 0,0 1.271,-0.023 5.42624,-4.237923 6.43424,-4.237923 4.464,0 8.28,0.624 11.448,1.872 3.168,1.249 5.735,3 7.704,5.256 1.967,2.257 3.407,4.944 4.32,8.064 0.911,3.12 1.368,6.552 1.368,10.296 0,3.408 -0.432,6.696 -1.296,9.864 -0.864,3.168 -2.304,5.976 -4.32,8.424 -2.016,2.447 -4.669,4.416 -7.956,5.903 -3.289,1.487 -12.204,-0.0424 -12.204,-0.0424 -2.60512,-3.711043 -1.33412,-1.388641 -2.60512,-1.436641 -1.272,-0.048 -2.13712,-1.471641 -3.50512,-1.544641 -1.368,-0.073 -5.48169,3.378917 -6.1984,-3.400162 -0.98848,-9.349606 0.99916,-1.065761 0.37616,-1.161761 z M 447.773,22.064 c -1.056,0 -5.58467,-3.380541 -6.38816,-2.657282 -8.32545,7.494085 -7.79745,7.398085 -8.32545,7.494085 l 1.99312,26.215035 c -8.04448,-0.745606 -8.07648,-3.112162 0,0 0.31088,5.252958 0,0 0,0 -0.49319,-0.190046 -3.96,-0.251 0,0 0,0 12.35837,6.020444 12.59937,6.020444 2.783,0 4.64512,-3.220282 6.49312,-4.205282 1.847,-0.983 3.312,-2.292 4.392,-3.924 1.08,-1.632 1.836,-3.516 2.268,-5.652 0.432,-2.136 0.648,-4.331 0.648,-6.588 0,-1.968 -0.192,-3.948 -0.576,-5.94 -0.385,-1.991 -1.092,-3.779 -2.124,-5.363 -1.033,-1.584 -2.437,-2.881 -4.212,-3.889 -1.776,-1.007 -4.031,-1.511 -6.768,-1.511 z"
       id="path6-5"
       style="fill:#0383d6;fill-opacity:1"
       sodipodi:nodetypes="csscscccssccssssccsscccscscssscccs" /><path
       fill="#ffffff"
       d="m 464.05948,59.527423 c -1.11672,0.955905 -4.56556,3.925918 -7.23264,4.806093 -2.07388,0.684406 -5.23229,0.99419 -7.72929,0.99419 -3.023,0 -5.893,-0.468 -8.604,-1.404 -2.713,-0.936 -5.101,-2.447 -7.164,-4.535 -2.064,-2.088 -3.708,-4.8 -4.932,-8.137 -1.225,-3.335 -1.836,-7.38 -1.836,-12.132 0,-4.943 0.684,-9.083 2.052,-12.42 1.368,-3.336 3.144,-6.023 5.328,-8.063 2.184,-2.04 4.619,-3.504 7.308,-4.393 2.688,-0.888 5.375,-1.332 8.064,-1.332 2.88,0 5.315,1.03257 7.308,1.41657 l 3.88315,2.450736 -1.80391,9.157976 c 0,0 -1.50224,-3.640282 -3.01424,-3.880282 -1.513,-0.24 -4.04948,-0.07981 -6.20948,-0.07981 -3.984,0 -6.48752,1.13981 -8.91052,3.97681 -2.425,2.839 -3.637,7.239 -3.637,13.203 0,2.598 0.288,4.967 0.864,7.106 0.576,2.142 1.451,3.97 2.628,5.483 1.176,1.516 2.64,2.694 4.393,3.536 1.751,0.842 2.94874,1.059402 5.24343,0.841715 2.38991,-0.22672 3.78258,-0.56038 5.7522,-0.64701 1.90728,-0.853285 2.22261,-1.403286 3.32761,-2.076286 z"
       id="path16-3"
       style="fill:#0383d6;fill-opacity:1"
       sodipodi:nodetypes="csscccscscsccccscscccsccc" /></g><path
     fill="#ffffff"
     d="m 136.67184,40.027434 0.81085,7.734304 h 0.2495 l 0.87322,-7.858184 7.60956,-24.264123 8.34538,0.160693 c -6.37577,16.912797 -7.10288,15.635026 0,0 v 0 l -14.9561,43.813429 h -6.05022 L 121.57834,15.639431 h 9.29364 z"
     id="path10-4"
     style="fill:#0383d6;fill-opacity:1;stroke-width:0.866297"
     sodipodi:nodetypes="ccccccccccccc" /><path
     fill="#ffffff"
     d="m 83.072315,56.973216 c -1.3315,0.949462 -3.025111,1.629505 -5.083434,2.041863 -2.058322,0.412358 -4.168623,0.618536 -6.331768,0.618536 -2.618817,0 -5.10509,-0.405427 -7.453623,-1.216281 -2.350265,-0.810855 -4.418983,-2.11983 -6.206154,-3.928659 -1.78804,-1.808829 -3.212233,-4.158228 -4.272581,-7.049062 -1.061215,-2.889102 -1.590522,-6.393275 -1.590522,-10.509921 0,-4.282108 0.592547,-7.868579 1.777642,-10.759414 1.185095,-2.889968 2.723639,-5.217709 4.615635,-6.984956 1.891993,-1.767247 4.001427,-3.035506 6.330901,-3.805645 2.328608,-0.769272 4.656349,-1.153908 6.985823,-1.153908 2.494936,0 4.60437,0.166329 6.330901,0.498988 1.724798,0.333524 3.149858,0.728556 4.273445,1.185094 l -1.684082,7.235317 c -0.956392,-0.456539 -2.089509,-0.789197 -3.399351,-0.997109 -1.310708,-0.207911 -2.90123,-0.311867 -4.772432,-0.311867 -3.451329,0 -6.226946,1.230143 -8.325985,3.687828 -2.100771,2.459419 -3.150724,6.271127 -3.150724,11.437725 0,2.250641 0.249494,4.3029 0.748481,6.15591 0.498988,1.855609 1.256998,3.439201 2.27663,4.749909 1.018766,1.313307 2.287025,2.333805 3.805644,3.063227 1.516887,0.729423 3.273738,1.093268 5.270554,1.093268 1.871202,0 3.450463,-0.187121 4.74038,-0.560495 1.288184,-0.375106 2.410905,-0.85157 3.368164,-1.434588 z"
     id="path16-8"
     style="fill:#0383d6;fill-opacity:1;stroke-width:0.866297" /></g></svg>
