<?xml version="1.0" encoding="UTF-8" standalone="no"?>
<svg
   xmlns:dc="http://purl.org/dc/elements/1.1/"
   xmlns:cc="http://creativecommons.org/ns#"
   xmlns:rdf="http://www.w3.org/1999/02/22-rdf-syntax-ns#"
   xmlns:svg="http://www.w3.org/2000/svg"
   xmlns="http://www.w3.org/2000/svg"
   xmlns:sodipodi="http://sodipodi.sourceforge.net/DTD/sodipodi-0.dtd"
   xmlns:inkscape="http://www.inkscape.org/namespaces/inkscape"
   version="1.1"
   id="Capa_1"
   x="0px"
   y="0px"
   width="209.95015"
   height="48.939426"
   viewBox="0 0 209.95015 48.939427"
   enable-background="new 0 0 494 80"
   xml:space="preserve"
   sodipodi:docname="logowhite.svg"
   inkscape:version="1.0.1 (3bc2e813f5, 2020-09-07)"><metadata
   id="metadata33"><rdf:RDF><cc:Work
       rdf:about=""><dc:format>image/svg+xml</dc:format><dc:type
         rdf:resource="http://purl.org/dc/dcmitype/StillImage" /><dc:title></dc:title></cc:Work></rdf:RDF></metadata><defs
   id="defs31">
	
	
	
	
	
	
	
	
	
	
</defs><sodipodi:namedview
   pagecolor="#ffffff"
   bordercolor="#666666"
   borderopacity="1"
   objecttolerance="10"
   gridtolerance="10"
   guidetolerance="10"
   inkscape:pageopacity="0"
   inkscape:pageshadow="2"
   inkscape:window-width="1440"
   inkscape:window-height="837"
   id="namedview29"
   showgrid="false"
   inkscape:zoom="2.0433423"
   inkscape:cx="119.04499"
   inkscape:cy="30.937091"
   inkscape:window-x="-8"
   inkscape:window-y="-8"
   inkscape:window-maximized="1"
   inkscape:current-layer="Capa_1" />
<rect
   x="-33.515209"
   y="-0.19243431"
   fill="none"
   width="585"
   height="71"
   id="rect2" />


<path
   fill="#ffffff"
   d="m 100.71054,11.590395 c 0.56425,-0.08061 1.20239,-0.14722 1.91442,-0.200958 0.71147,-0.05374 1.44421,-0.09404 2.19655,-0.120912 0.75177,-0.02687 1.48395,-0.04702 2.19654,-0.06046 0.71147,-0.01288 1.35018,-0.02015 1.91443,-0.02015 2.49882,0 4.63491,0.349298 6.40827,1.047894 1.77336,0.699156 3.2103,1.679318 4.3125,2.942165 1.10106,1.263407 1.90714,2.767516 2.41821,4.514007 0.50995,1.74649 0.76577,3.66763 0.76577,5.763419 0,1.907705 -0.24183,3.748238 -0.72547,5.521597 -0.48364,1.77336 -1.28972,3.345202 -2.41821,4.715525 -1.12851,1.369764 -2.61358,2.471956 -4.45355,3.304338 -1.8411,0.832382 -4.11769,1.249412 -6.83147,1.249412 -0.4299,0 -1.00143,-0.01343 -1.71291,-0.0403 -0.71203,-0.02687 -1.45093,-0.05989 -2.2167,-0.100759 -0.76576,-0.04086 -1.49795,-0.08061 -2.19654,-0.120911 -0.69916,-0.0403 -1.22311,-0.08732 -1.57184,-0.141063 z m 8.66527,4.514007 c -0.59112,0 -1.18895,0.01343 -1.7935,0.0403 -0.60456,0.02687 -1.05462,0.06717 -1.35018,0.120911 v 18.902403 c 0.10692,0.02743 0.28885,0.04758 0.5441,0.06045 0.25526,0.01343 0.5301,0.02687 0.82622,0.0403 0.29557,0.01343 0.57769,0.02687 0.84639,0.03974 0.26812,0.014 0.46964,0.02015 0.60455,0.02015 1.55784,0 2.85484,-0.274849 3.8893,-0.826224 1.0339,-0.550257 1.85397,-1.282999 2.45852,-2.196549 0.60455,-0.913548 1.02774,-1.96816 1.26956,-3.163835 0.24182,-1.195674 0.36273,-2.424375 0.36273,-3.687782 0,-1.101632 -0.10747,-2.209982 -0.32242,-3.325049 -0.21552,-1.114507 -0.61127,-2.115381 -1.18896,-3.002061 -0.57824,-0.88668 -1.36417,-1.612705 -2.35776,-2.176956 -0.99416,-0.563691 -2.25645,-0.845816 -3.78855,-0.845815 z"
   id="path6"
   style="fill:#ffffff;fill-opacity:1;stroke-width:0.559772" /><path
   fill="#ffffff"
   d="M 97.493988,39.802436 92.218101,39.528987 V 11.316446 H 97.7397 l -0.245712,28.48599 c -0.07037,2.114893 0,-8.063043 0,0 z"
   id="path8"
   style="fill:#ffffff;fill-opacity:1;stroke-width:0.559772"
   sodipodi:nodetypes="cccccc" /><path
   fill="#ffffff"
   d="m 131.02981,27.897014 0.52395,4.99765 h 0.16121 l 0.56425,-5.077697 4.91705,-15.678673 h 3.62732 l 4.83643,15.75872 0.56426,4.99765 h 0.16122 l 0.61687,-5.077697 3.49465,-15.678673 h 5.5216 l -7.7786,28.41462 h -3.70794 l -5.03795,-15.678673 -0.68516,-4.311928 h -0.20152 l -0.68516,4.352232 -4.99765,15.638369 h -3.90945 l -7.7383,-28.41462 h 6.00524 z"
   id="path10"
   style="fill:#ffffff;fill-opacity:1;stroke-width:0.559772" /><path
   fill="#ffffff"
   d="m 158.43628,12.138294 h 16.726 v 4.917043 h -11.20441 v 6.569492 h 10.19683 v 4.917043 h -10.19683 v 6.891921 h 11.40593 v 4.917042 h -16.92752 z"
   id="path12"
   style="fill:#ffffff;fill-opacity:1;stroke-width:0.559772" /><path
   fill="#ffffff"
   d="m 198.45722,18.707786 c 0,0.699156 -0.0868,1.397193 -0.26085,2.095789 -0.17409,0.699156 -0.4607,1.337297 -0.86149,1.914422 -0.40024,0.578245 -0.92139,1.088198 -1.56233,1.531538 -0.64093,0.44334 -1.41566,0.772486 -2.32361,0.987439 v 0.241822 c 0.80215,0.134905 1.564,0.362733 2.28555,0.685722 0.72155,0.322988 1.35017,0.765768 1.88475,1.330019 0.53459,0.564251 0.9561,1.248853 1.26341,2.055485 0.30731,0.805513 0.46126,1.760485 0.46126,2.861558 0,1.450931 -0.309,2.707061 -0.92643,3.76783 -0.61855,1.061329 -1.44477,1.928416 -2.47924,2.600144 -1.03501,0.671727 -2.20998,1.168805 -3.52656,1.491234 -1.31715,0.32187 -2.67348,0.483084 -4.07011,0.483084 -0.45733,0 -1.04174,0 -1.75377,0 -0.71203,0 -1.47835,-0.02015 -2.2973,-0.05989 -0.82007,-0.0403 -1.65245,-0.101319 -2.49883,-0.181366 -0.84693,-0.08117 -1.61942,-0.201518 -2.31801,-0.362733 V 12.340372 c 0.50994,-0.08061 1.09491,-0.161214 1.7532,-0.241821 0.6583,-0.08117 1.36361,-0.147781 2.11594,-0.201519 0.75234,-0.05374 1.52482,-0.09404 2.31746,-0.120911 0.79264,-0.02687 1.57856,-0.0403 2.35833,-0.0403 1.31602,0 2.59958,0.100758 3.84899,0.302277 1.24885,0.201518 2.36392,0.558093 3.3452,1.068046 0.98072,0.510512 1.76665,1.223103 2.35777,2.135533 0.59055,0.914108 0.88667,2.069479 0.88667,3.466112 z m -11.80896,5.279776 c 0.37617,0 0.81223,-0.01288 1.30987,-0.03918 0.49708,-0.02687 0.90683,-0.06661 1.22926,-0.119791 1.02047,-0.318511 1.90043,-0.797116 2.63988,-1.435817 0.73835,-0.638141 1.1078,-1.475561 1.1078,-2.512259 0,-0.69132 -0.13435,-1.262848 -0.40304,-1.714584 -0.26869,-0.452297 -0.6247,-0.811111 -1.06804,-1.077003 -0.44335,-0.265892 -0.94658,-0.451737 -1.51083,-0.558093 -0.56481,-0.105797 -1.15538,-0.159535 -1.77392,-0.159535 -0.6986,0 -1.34346,0.01343 -1.93401,0.0403 -0.59169,0.02631 -1.0479,0.06605 -1.37033,0.118672 v 7.457851 h 1.77336 z m 1.74817,12.131952 c 0.65941,0 1.29867,-0.08005 1.9189,-0.239582 0.61911,-0.159536 1.16769,-0.405836 1.64237,-0.737781 0.47525,-0.333064 0.85701,-0.751775 1.14754,-1.257249 0.28996,-0.504915 0.43494,-1.103872 0.43494,-1.795191 0,-0.877724 -0.17185,-1.569603 -0.51443,-2.074517 -0.34314,-0.504916 -0.79152,-0.897316 -1.34569,-1.177202 -0.55362,-0.279327 -1.17385,-0.459014 -1.85901,-0.539061 -0.68628,-0.07949 -1.372,-0.119792 -2.05716,-0.119792 h -2.88843 v 7.700793 c 0.13155,0.05374 0.34258,0.09292 0.6331,0.119791 0.28941,0.02631 0.59896,0.04646 0.92922,0.05934 0.33027,0.01343 0.67229,0.02743 1.02887,0.0403 0.35657,0.01288 0.66557,0.02015 0.92978,0.02015 z"
   id="path14"
   style="fill:#ffffff;fill-opacity:1;stroke-width:0.559772" /><rect
   x="7.5939121"
   y="8.616662"
   fill="#fe4918"
   width="10.075908"
   height="32.928627"
   id="rect26"
   style="stroke-width:0.559772" /><g
   id="g113"
   transform="matrix(0.55977265,0,0,0.55977265,-192.54127,3.1866551)"
   style="fill:#ffffff;fill-opacity:1"><path
     fill="#ffffff"
     d="m 432.74788,20.823204 c 1.008,-0.144 6.84,-4.811922 3.87488,2.370282 -2.96512,7.182204 2.58,-5.626563 3.924,-5.674563 1.343,-0.048 -1.273,0.024 0,0 1.271,-0.023 5.42624,-4.237923 6.43424,-4.237923 4.464,0 8.28,0.624 11.448,1.872 3.168,1.249 5.735,3 7.704,5.256 1.967,2.257 3.407,4.944 4.32,8.064 0.911,3.12 1.368,6.552 1.368,10.296 0,3.408 -0.432,6.696 -1.296,9.864 -0.864,3.168 -2.304,5.976 -4.32,8.424 -2.016,2.447 -4.669,4.416 -7.956,5.903 -3.289,1.487 -12.204,-0.0424 -12.204,-0.0424 -2.60512,-3.711043 -1.33412,-1.388641 -2.60512,-1.436641 -1.272,-0.048 -2.13712,-1.471641 -3.50512,-1.544641 -1.368,-0.073 -5.48169,3.378917 -6.1984,-3.400162 -0.98848,-9.349606 0.99916,-1.065761 0.37616,-1.161761 z M 447.773,22.064 c -1.056,0 -5.58467,-3.380541 -6.38816,-2.657282 -8.32545,7.494085 -7.79745,7.398085 -8.32545,7.494085 l 1.99312,26.215035 c -8.04448,-0.745606 -8.07648,-3.112162 0,0 0.31088,5.252958 0,0 0,0 -0.49319,-0.190046 -3.96,-0.251 0,0 0,0 12.35837,6.020444 12.59937,6.020444 2.783,0 4.64512,-3.220282 6.49312,-4.205282 1.847,-0.983 3.312,-2.292 4.392,-3.924 1.08,-1.632 1.836,-3.516 2.268,-5.652 0.432,-2.136 0.648,-4.331 0.648,-6.588 0,-1.968 -0.192,-3.948 -0.576,-5.94 -0.385,-1.991 -1.092,-3.779 -2.124,-5.363 -1.033,-1.584 -2.437,-2.881 -4.212,-3.889 -1.776,-1.007 -4.031,-1.511 -6.768,-1.511 z"
     id="path6-5"
     style="fill:#ffffff;fill-opacity:1"
     sodipodi:nodetypes="csscscccssccssssccsscccscscssscccs" /><path
     fill="#ffffff"
     d="m 464.05948,59.527423 c -1.11672,0.955905 -4.56556,3.925918 -7.23264,4.806093 -2.07388,0.684406 -5.23229,0.99419 -7.72929,0.99419 -3.023,0 -5.893,-0.468 -8.604,-1.404 -2.713,-0.936 -5.101,-2.447 -7.164,-4.535 -2.064,-2.088 -3.708,-4.8 -4.932,-8.137 -1.225,-3.335 -1.836,-7.38 -1.836,-12.132 0,-4.943 0.684,-9.083 2.052,-12.42 1.368,-3.336 3.144,-6.023 5.328,-8.063 2.184,-2.04 4.619,-3.504 7.308,-4.393 2.688,-0.888 5.375,-1.332 8.064,-1.332 2.88,0 5.315,1.03257 7.308,1.41657 l 3.88315,2.450736 -1.80391,9.157976 c 0,0 -1.50224,-3.640282 -3.01424,-3.880282 -1.513,-0.24 -4.04948,-0.07981 -6.20948,-0.07981 -3.984,0 -6.48752,1.13981 -8.91052,3.97681 -2.425,2.839 -3.637,7.239 -3.637,13.203 0,2.598 0.288,4.967 0.864,7.106 0.576,2.142 1.451,3.97 2.628,5.483 1.176,1.516 2.64,2.694 4.393,3.536 1.751,0.842 2.94874,1.059402 5.24343,0.841715 2.38991,-0.22672 3.78258,-0.56038 5.7522,-0.64701 1.90728,-0.853285 2.22261,-1.403286 3.32761,-2.076286 z"
     id="path16-3"
     style="fill:#ffffff;fill-opacity:1"
     sodipodi:nodetypes="csscccscscsccccscscccsccc" /></g><path
   fill="#ffffff"
   d="m 80.659139,26.971329 0.523945,4.997651 h 0.161218 l 0.564246,-5.077698 4.917045,-15.678671 5.392508,0.103835 c -4.119811,10.928488 -4.589645,10.102835 0,0 v 0 L 82.553965,39.627229 H 78.644514 L 70.906221,11.212611 h 6.005241 z"
   id="path10-4"
   style="fill:#ffffff;fill-opacity:1;stroke-width:0.559772"
   sodipodi:nodetypes="ccccccccccccc" /><path
   fill="#ffffff"
   d="m 46.024905,37.921131 c -0.860371,0.613511 -1.954726,1.052932 -3.284746,1.319384 -1.330019,0.266452 -2.693626,0.399678 -4.091378,0.399678 -1.692193,0 -3.29874,-0.261974 -4.816284,-0.785921 -1.518663,-0.523947 -2.8554,-1.369763 -4.010211,-2.538569 -1.155372,-1.168805 -2.075638,-2.686909 -2.7608,-4.55487 -0.685722,-1.866841 -1.027742,-4.131122 -1.027742,-6.791162 0,-2.766956 0.382884,-5.084414 1.148653,-6.952376 0.765769,-1.867401 1.759925,-3.37151 2.98247,-4.513447 1.222543,-1.141936 2.585589,-1.961443 4.090818,-2.459081 1.504669,-0.497078 3.008778,-0.745617 4.514007,-0.745617 1.612145,0 2.975191,0.107476 4.090818,0.322429 1.114507,0.215512 2.035334,0.470769 2.761358,0.765769 l -1.088197,4.675221 c -0.617989,-0.295 -1.350172,-0.509953 -2.196548,-0.644298 -0.846936,-0.134346 -1.874679,-0.201518 -3.083787,-0.201518 -2.230135,0 -4.023646,0.794877 -5.379976,2.382952 -1.357448,1.589195 -2.035893,4.052194 -2.035893,7.390678 0,1.454289 0.161215,2.780391 0.483644,3.977745 0.322429,1.199033 0.81223,2.222297 1.471082,3.069233 0.658293,0.848616 1.4778,1.508027 2.459081,1.979356 0.980162,0.471329 2.115381,0.706433 3.405657,0.706433 1.209109,0 2.229575,-0.120911 3.063077,-0.362173 0.832381,-0.242381 1.557846,-0.550256 2.176395,-0.926983 z"
   id="path16-8"
   style="fill:#ffffff;fill-opacity:1;stroke-width:0.559772" /></svg>
